# xmcd
#
# Track frame offsets:
#	150
#	17236
#	33669
#	43604
#	62297
#	80434
#	98983
#	118725
#	137874
#	155278
#	169775
#	193616
#	208089
#	235199
#	254426
#	268919
#	285149
#	313746
#	338081
#
# Disc length: 4745 seconds
#
# Revision: 0
# Processed by: cddbd v1.5.2PL0 Copyright (c) Steve Scherf et al.
# Submitted via: EasyCDDAExtractor 11.5.0.1
#
DISCID=0e128713
DTITLE=Laurie Lewis and The Right Hands - Live
DYEAR=2007
DGENRE=Bluegrass
TTITLE0=Alaska
TTITLE1=Before the Sun Goes Down
TTITLE2=Band Introductions
TTITLE3=Just a Lie
TTITLE4=Live Forever
TTITLE5=Geraldine and Ruthie Mae
TTITLE6=O My Malissa - How Old Are You?
TTITLE7=Val's Cabin
TTITLE8=Curly-Headed Woman
TTITLE9=Tall Pines
TTITLE10=Love Chooses You
TTITLE11=Worried Man Blues
TTITLE12=The Rope
TTITLE13=Going to the West
TTITLE14=The Wood Thrush's Song
TTITLE15=Diamond Joe
TTITLE16=Without My Walking Stick
TTITLE17=Who Will Watch the Home Plate?
TTITLE18=Texas Bluebonnets
EXTD=
EXTT0=
EXTT1=
EXTT2=
EXTT3=
EXTT4=
EXTT5=
EXTT6=
EXTT7=
EXTT8=
EXTT9=
EXTT10=
EXTT11=
EXTT12=
EXTT13=
EXTT14=
EXTT15=
EXTT16=
EXTT17=
EXTT18=
PLAYORDER=
